<svg xmlns="http://www.w3.org/2000/svg" viewBox="0 0 1200 900" font-family="'Segoe UI', 'Noto Sans Thai', sans-serif">
  <defs>
    <filter id="shadow" x="-4%" y="-4%" width="108%" height="112%">
      <feDropShadow dx="0" dy="2" stdDeviation="4" flood-color="#0a1929" flood-opacity="0.08"/>
    </filter>
    <linearGradient id="headerGrad" x1="0" y1="0" x2="1" y2="0">
      <stop offset="0%" stop-color="#0f172a"/>
      <stop offset="100%" stop-color="#1e3a5f"/>
    </linearGradient>
    <linearGradient id="setGrad" x1="0" y1="0" x2="0" y2="1">
      <stop offset="0%" stop-color="#dbeafe"/>
      <stop offset="100%" stop-color="#eff6ff"/>
    </linearGradient>
    <linearGradient id="secGrad" x1="0" y1="0" x2="0" y2="1">
      <stop offset="0%" stop-color="#fef3c7"/>
      <stop offset="100%" stop-color="#fffbeb"/>
    </linearGradient>
    <linearGradient id="dbGrad" x1="0" y1="0" x2="0" y2="1">
      <stop offset="0%" stop-color="#d1fae5"/>
      <stop offset="100%" stop-color="#ecfdf5"/>
    </linearGradient>
    <marker id="arrow" viewBox="0 0 10 7" refX="10" refY="3.5" markerWidth="10" markerHeight="7" orient="auto-start-auto">
      <polygon points="0 0, 10 3.5, 0 7" fill="#64748b"/>
    </marker>
    <marker id="arrowBlue" viewBox="0 0 10 7" refX="10" refY="3.5" markerWidth="10" markerHeight="7" orient="auto-start-auto">
      <polygon points="0 0, 10 3.5, 0 7" fill="#2563eb"/>
    </marker>
    <marker id="arrowAmber" viewBox="0 0 10 7" refX="10" refY="3.5" markerWidth="10" markerHeight="7" orient="auto-start-auto">
      <polygon points="0 0, 10 3.5, 0 7" fill="#d97706"/>
    </marker>
    <marker id="arrowGreen" viewBox="0 0 10 7" refX="10" refY="3.5" markerWidth="10" markerHeight="7" orient="auto-start-auto">
      <polygon points="0 0, 10 3.5, 0 7" fill="#16a34a"/>
    </marker>
  </defs>

  <!-- Background -->
  <rect width="1200" height="900" rx="16" fill="#f8fafc"/>

  <!-- Title bar -->
  <rect x="0" y="0" width="1200" height="64" rx="16" fill="url(#headerGrad)"/>
  <rect x="0" y="32" width="1200" height="32" fill="url(#headerGrad)"/>
  <text x="600" y="40" text-anchor="middle" fill="#38bdf8" font-size="22" font-weight="800">IPO Data Scraping Pipeline</text>
  <text x="600" y="58" text-anchor="middle" fill="#94a3b8" font-size="11">scrape_upcoming_ipos.py &#8212; ขั้นตอนการดึงข้อมูลหุ้นที่กำลังจะเข้า IPO</text>

  <!-- ==================== STEP 1: SET API ==================== -->
  <rect x="40" y="88" width="340" height="340" rx="14" fill="url(#setGrad)" stroke="#93c5fd" stroke-width="1.5" filter="url(#shadow)"/>
  <rect x="40" y="88" width="340" height="38" rx="14" fill="#2563eb"/>
  <rect x="40" y="112" width="340" height="14" fill="#2563eb"/>
  <circle cx="62" cy="107" r="10" fill="#1d4ed8" stroke="#bfdbfe" stroke-width="1.5"/>
  <text x="62" y="112" text-anchor="middle" fill="white" font-size="13" font-weight="800">1</text>
  <text x="82" y="112" fill="white" font-size="14" font-weight="700">SET API</text>

  <!-- SET API box -->
  <rect x="60" y="140" width="300" height="52" rx="8" fill="white" stroke="#bfdbfe" stroke-width="1"/>
  <text x="72" y="158" fill="#1e40af" font-size="11" font-weight="700">GET</text>
  <text x="100" y="158" fill="#475569" font-size="11">set.or.th/api/set/ipo/upcoming</text>
  <text x="72" y="178" fill="#64748b" font-size="10">?type=SET|mai &amp; lang=th</text>

  <!-- curl_cffi label -->
  <rect x="254" y="145" width="96" height="20" rx="4" fill="#dbeafe" stroke="#93c5fd" stroke-width="0.5"/>
  <text x="302" y="159" text-anchor="middle" fill="#1d4ed8" font-size="9" font-weight="700">curl_cffi</text>

  <!-- Fields from SET API -->
  <text x="60" y="212" fill="#1e3a5f" font-size="12" font-weight="700">ข้อมูลที่ได้:</text>
  <rect x="60" y="220" width="300" height="196" rx="8" fill="white" stroke="#bfdbfe" stroke-width="1"/>

  <text x="76" y="242" fill="#475569" font-size="11">
    <tspan font-weight="700" fill="#1e40af">symbol</tspan> — ชื่อย่อหลักทรัพย์
  </text>
  <text x="76" y="262" fill="#475569" font-size="11">
    <tspan font-weight="700" fill="#1e40af">company_name</tspan> — ชื่อบริษัท (EN)
  </text>
  <text x="76" y="282" fill="#475569" font-size="11">
    <tspan font-weight="700" fill="#1e40af">company_name_th</tspan> — ชื่อบริษัท (TH)
  </text>
  <text x="76" y="302" fill="#475569" font-size="11">
    <tspan font-weight="700" fill="#1e40af">market</tspan> — SET / mai
  </text>
  <text x="76" y="322" fill="#475569" font-size="11">
    <tspan font-weight="700" fill="#1e40af">listing_date, ipo_price, par_value</tspan>
  </text>
  <text x="76" y="342" fill="#475569" font-size="11">
    <tspan font-weight="700" fill="#1e40af">filing_status</tspan> — Effective / Approved / Submitted
  </text>
  <text x="76" y="362" fill="#475569" font-size="11">
    <tspan font-weight="700" fill="#1e40af">business_description</tspan> — ประเภทธุรกิจ
  </text>
  <text x="76" y="382" fill="#475569" font-size="11">
    <tspan font-weight="700" fill="#1e40af">sector, industry, fa, lead_uw</tspan>
  </text>
  <text x="76" y="402" fill="#475569" font-size="11">
    <tspan font-weight="700" fill="#1e40af">filingUrl</tspan> — ลิงก์ไปหน้า SEC Filing
  </text>

  <!-- Arrow from SET to SEC -->
  <line x1="380" y1="260" x2="420" y2="260" stroke="#64748b" stroke-width="2" marker-end="url(#arrow)"/>
  <text x="400" y="252" text-anchor="middle" fill="#64748b" font-size="9" font-weight="600">filingUrl</text>

  <!-- ==================== STEP 2: SEC Filing ==================== -->
  <rect x="430" y="88" width="340" height="340" rx="14" fill="url(#secGrad)" stroke="#fcd34d" stroke-width="1.5" filter="url(#shadow)"/>
  <rect x="430" y="88" width="340" height="38" rx="14" fill="#d97706"/>
  <rect x="430" y="112" width="340" height="14" fill="#d97706"/>
  <circle cx="452" cy="107" r="10" fill="#b45309" stroke="#fde68a" stroke-width="1.5"/>
  <text x="452" y="112" text-anchor="middle" fill="white" font-size="13" font-weight="800">2</text>
  <text x="472" y="112" fill="white" font-size="14" font-weight="700">SEC กลต. Filing Documents</text>

  <!-- Filing page -->
  <rect x="450" y="140" width="300" height="44" rx="8" fill="white" stroke="#fcd34d" stroke-width="1"/>
  <text x="462" y="156" fill="#92400e" font-size="11" font-weight="700">IPOSEQ01.aspx?TransID=X</text>
  <text x="462" y="172" fill="#64748b" font-size="10">Parse RadGrid → ค้นหา URL ดาวน์โหลดเอกสาร</text>

  <!-- Doc 1: Subscription -->
  <rect x="450" y="196" width="300" height="44" rx="8" fill="white" stroke="#fcd34d" stroke-width="1"/>
  <rect x="454" y="200" width="6" height="36" rx="3" fill="#f59e0b"/>
  <text x="470" y="214" fill="#78350f" font-size="11" font-weight="700">สรุปข้อมูลสำคัญ (Subscription)</text>
  <text x="470" y="230" fill="#64748b" font-size="10">→ gross_proceeds, total_expense</text>

  <!-- Doc 2: Securities Offering -->
  <rect x="450" y="250" width="300" height="44" rx="8" fill="white" stroke="#fcd34d" stroke-width="1"/>
  <rect x="454" y="254" width="6" height="36" rx="3" fill="#f59e0b"/>
  <text x="470" y="268" fill="#78350f" font-size="11" font-weight="700">หนังสือชี้ชวน (Securities Offering)</text>
  <text x="470" y="284" fill="#64748b" font-size="10">→ offered_shares, offered_ratio_pct, existing_pct</text>

  <!-- Doc 3: Structure -->
  <rect x="450" y="304" width="300" height="44" rx="8" fill="white" stroke="#fcd34d" stroke-width="1"/>
  <rect x="454" y="308" width="6" height="36" rx="3" fill="#f59e0b"/>
  <text x="470" y="322" fill="#78350f" font-size="11" font-weight="700">โครงสร้างผู้ถือหุ้น (Executive Info)</text>
  <text x="470" y="338" fill="#64748b" font-size="10">→ executive_total_pct</text>

  <!-- Doc 4: Financials -->
  <rect x="450" y="358" width="300" height="52" rx="8" fill="white" stroke="#fcd34d" stroke-width="1"/>
  <rect x="454" y="362" width="6" height="44" rx="3" fill="#f59e0b"/>
  <text x="470" y="376" fill="#78350f" font-size="11" font-weight="700">งบการเงิน (Financial Statements)</text>
  <text x="470" y="392" fill="#64748b" font-size="10">→ total_assets, total_equity, net_income ...</text>
  <text x="470" y="404" fill="#94a3b8" font-size="9">ZIP → XLSX (openpyxl)</text>

  <!-- ==================== STEP 2.5: Document Processing ==================== -->
  <rect x="430" y="440" width="340" height="160" rx="14" fill="#fff7ed" stroke="#fed7aa" stroke-width="1.5" filter="url(#shadow)"/>
  <text x="450" y="464" fill="#92400e" font-size="12" font-weight="700">การประมวลผลเอกสาร</text>

  <rect x="450" y="476" width="300" height="110" rx="8" fill="white" stroke="#fed7aa" stroke-width="1"/>

  <!-- DOCX flow -->
  <rect x="466" y="486" width="52" height="22" rx="4" fill="#dbeafe" stroke="#93c5fd" stroke-width="0.5"/>
  <text x="492" y="501" text-anchor="middle" fill="#1d4ed8" font-size="10" font-weight="700">.docx</text>
  <line x1="522" y1="497" x2="540" y2="497" stroke="#64748b" stroke-width="1.5" marker-end="url(#arrow)"/>
  <text x="580" y="493" fill="#475569" font-size="10">word/document.xml</text>
  <text x="580" y="505" fill="#94a3b8" font-size="9">แยก &lt;w:t&gt; elements</text>

  <!-- ZIP flow -->
  <rect x="466" y="518" width="52" height="22" rx="4" fill="#fef3c7" stroke="#fcd34d" stroke-width="0.5"/>
  <text x="492" y="533" text-anchor="middle" fill="#92400e" font-size="10" font-weight="700">.zip</text>
  <line x1="522" y1="529" x2="540" y2="529" stroke="#64748b" stroke-width="1.5" marker-end="url(#arrow)"/>
  <text x="580" y="525" fill="#475569" font-size="10">Extract .xlsx</text>
  <text x="580" y="537" fill="#94a3b8" font-size="9">zipfile → openpyxl</text>

  <!-- Regex -->
  <rect x="466" y="550" width="52" height="22" rx="4" fill="#f0fdf4" stroke="#86efac" stroke-width="0.5"/>
  <text x="492" y="565" text-anchor="middle" fill="#166534" font-size="10" font-weight="700">regex</text>
  <line x1="522" y1="561" x2="540" y2="561" stroke="#64748b" stroke-width="1.5" marker-end="url(#arrow)"/>
  <text x="580" y="557" fill="#475569" font-size="10">Thai keyword matching</text>
  <text x="580" y="569" fill="#94a3b8" font-size="9">normalize spaces in numbers</text>

  <!-- ==================== Arrow down to DB ==================== -->
  <!-- From SET -->
  <path d="M 210 428 L 210 660 L 420 660" stroke="#2563eb" stroke-width="2" fill="none" marker-end="url(#arrowBlue)" stroke-dasharray="6,3"/>
  <text x="220" y="548" fill="#2563eb" font-size="10" font-weight="600">ipos table</text>

  <!-- From SEC -->
  <path d="M 600 600 L 600 690 L 420 690" stroke="#d97706" stroke-width="2" fill="none" marker-end="url(#arrowAmber)" stroke-dasharray="6,3"/>
  <text x="520" y="650" fill="#d97706" font-size="10" font-weight="600">ipo_financials table</text>

  <!-- ==================== STEP 3: Supabase ==================== -->
  <rect x="40" y="630" width="370" height="246" rx="14" fill="url(#dbGrad)" stroke="#86efac" stroke-width="1.5" filter="url(#shadow)"/>
  <rect x="40" y="630" width="370" height="38" rx="14" fill="#16a34a"/>
  <rect x="40" y="654" width="370" height="14" fill="#16a34a"/>
  <circle cx="62" cy="649" r="10" fill="#15803d" stroke="#86efac" stroke-width="1.5"/>
  <text x="62" y="654" text-anchor="middle" fill="white" font-size="13" font-weight="800">3</text>
  <text x="82" y="654" fill="white" font-size="14" font-weight="700">Supabase (PostgreSQL)</text>

  <rect x="60" y="682" width="160" height="84" rx="8" fill="white" stroke="#86efac" stroke-width="1"/>
  <text x="72" y="700" fill="#166534" font-size="11" font-weight="700">ipos</text>
  <text x="72" y="716" fill="#64748b" font-size="10">symbol, company_name</text>
  <text x="72" y="730" fill="#64748b" font-size="10">listing_date, ipo_price</text>
  <text x="72" y="744" fill="#64748b" font-size="10">filing_status, fa, uw</text>
  <text x="72" y="758" fill="#64748b" font-size="10">business_description</text>

  <rect x="230" y="682" width="160" height="84" rx="8" fill="white" stroke="#86efac" stroke-width="1"/>
  <text x="242" y="700" fill="#166534" font-size="11" font-weight="700">ipo_financials</text>
  <text x="242" y="716" fill="#64748b" font-size="10">gross_proceeds, expense</text>
  <text x="242" y="730" fill="#64748b" font-size="10">offered_shares, ratios</text>
  <text x="242" y="744" fill="#64748b" font-size="10">equity, liabilities</text>
  <text x="242" y="758" fill="#64748b" font-size="10">net_income, revenue</text>

  <!-- Upsert label -->
  <rect x="130" y="776" width="130" height="26" rx="6" fill="#dcfce7" stroke="#86efac" stroke-width="1"/>
  <text x="195" y="793" text-anchor="middle" fill="#166534" font-size="11" font-weight="700">UPSERT on symbol</text>

  <!-- ==================== STEP 4: Next.js ==================== -->
  <rect x="430" y="630" width="340" height="246" rx="14" fill="#f8fafc" stroke="#cbd5e1" stroke-width="1.5" filter="url(#shadow)"/>
  <rect x="430" y="630" width="340" height="38" rx="14" fill="#334155"/>
  <rect x="430" y="654" width="340" height="14" fill="#334155"/>
  <circle cx="452" cy="649" r="10" fill="#1e293b" stroke="#94a3b8" stroke-width="1.5"/>
  <text x="452" y="654" text-anchor="middle" fill="white" font-size="13" font-weight="800">4</text>
  <text x="472" y="654" fill="white" font-size="14" font-weight="700">Next.js Frontend</text>

  <rect x="450" y="682" width="300" height="44" rx="8" fill="white" stroke="#e2e8f0" stroke-width="1"/>
  <text x="462" y="700" fill="#334155" font-size="11" font-weight="700">/api/upcoming-recommendations</text>
  <text x="462" y="716" fill="#64748b" font-size="10">query v_upcoming_ipos + ipos + ipo_financials</text>

  <rect x="450" y="736" width="300" height="44" rx="8" fill="white" stroke="#e2e8f0" stroke-width="1"/>
  <text x="462" y="754" fill="#334155" font-size="11" font-weight="700">UpcomingIpoHero.tsx</text>
  <text x="462" y="770" fill="#64748b" font-size="10">คำนวณ Score → แสดงคำแนะนำ BUY/NEUTRAL/AVOID</text>

  <rect x="450" y="790" width="300" height="72" rx="8" fill="white" stroke="#e2e8f0" stroke-width="1"/>
  <text x="462" y="808" fill="#334155" font-size="11" font-weight="700">แสดงผล:</text>
  <text x="462" y="824" fill="#64748b" font-size="10">• ชื่อบริษัท (ไทย), ประเภทธุรกิจ, สถานะ Filing</text>
  <text x="462" y="840" fill="#64748b" font-size="10">• FA/UW สถิติ, Fundamental Score, Target Price</text>
  <text x="462" y="856" fill="#64748b" font-size="10">• ตัวกรอง: ตลาด, คำแนะนำ</text>

  <!-- Arrow from DB to Frontend -->
  <line x1="410" y1="750" x2="445" y2="750" stroke="#16a34a" stroke-width="2" marker-end="url(#arrowGreen)"/>

  <!-- ==================== Right side: Pipeline Summary ==================== -->
  <rect x="800" y="88" width="370" height="788" rx="14" fill="white" stroke="#e2e8f0" stroke-width="1.5" filter="url(#shadow)"/>
  <rect x="800" y="88" width="370" height="38" rx="14" fill="#0f172a"/>
  <rect x="800" y="112" width="370" height="14" fill="#0f172a"/>
  <text x="985" y="112" text-anchor="middle" fill="#38bdf8" font-size="14" font-weight="700">สรุปขั้นตอนทั้งหมด</text>

  <!-- Step 1 summary -->
  <rect x="820" y="142" width="330" height="100" rx="10" fill="#eff6ff" stroke="#bfdbfe" stroke-width="1"/>
  <circle cx="840" cy="162" r="12" fill="#2563eb"/>
  <text x="840" y="167" text-anchor="middle" fill="white" font-size="12" font-weight="800">1</text>
  <text x="860" y="167" fill="#1e40af" font-size="13" font-weight="700">ดึงข้อมูลจาก SET API</text>
  <text x="836" y="186" fill="#475569" font-size="11">เรียก API ของตลาดหลักทรัพย์</text>
  <text x="836" y="202" fill="#475569" font-size="11">ได้ข้อมูลพื้นฐาน: ชื่อ, ราคา, วันเข้าเทรด,</text>
  <text x="836" y="218" fill="#475569" font-size="11">สถานะ Filing, ประเภทธุรกิจ, FA, UW</text>
  <text x="836" y="234" fill="#94a3b8" font-size="10">ใช้ curl_cffi impersonate Chrome</text>

  <!-- Arrow -->
  <line x1="985" y1="242" x2="985" y2="260" stroke="#cbd5e1" stroke-width="2" marker-end="url(#arrow)"/>

  <!-- Step 2 summary -->
  <rect x="820" y="268" width="330" height="130" rx="10" fill="#fffbeb" stroke="#fcd34d" stroke-width="1"/>
  <circle cx="840" cy="288" r="12" fill="#d97706"/>
  <text x="840" y="293" text-anchor="middle" fill="white" font-size="12" font-weight="800">2</text>
  <text x="860" y="293" fill="#92400e" font-size="13" font-weight="700">ดึงเอกสารจาก SEC กลต.</text>
  <text x="836" y="314" fill="#475569" font-size="11">เข้าหน้า Filing → ค้นหาลิงก์ดาวน์โหลด</text>
  <text x="836" y="332" fill="#475569" font-size="11">ดาวน์โหลด 4 ประเภทเอกสาร:</text>
  <text x="848" y="350" fill="#78350f" font-size="11">① สรุปข้อมูลสำคัญ (ค่าใช้จ่าย IPO)</text>
  <text x="848" y="366" fill="#78350f" font-size="11">② หนังสือชี้ชวน (สัดส่วนหุ้น)</text>
  <text x="848" y="382" fill="#78350f" font-size="11">③ โครงสร้างผู้ถือหุ้น (สัดส่วนผู้บริหาร)</text>
  <text x="848" y="398" fill="#78350f" font-size="11">④ งบการเงิน (สินทรัพย์, หนี้, กำไร)</text>

  <!-- Arrow -->
  <line x1="985" y1="398" x2="985" y2="416" stroke="#cbd5e1" stroke-width="2" marker-end="url(#arrow)"/>

  <!-- Step 3 summary -->
  <rect x="820" y="424" width="330" height="110" rx="10" fill="#fff7ed" stroke="#fed7aa" stroke-width="1"/>
  <circle cx="840" cy="444" r="12" fill="#ea580c"/>
  <text x="840" y="449" text-anchor="middle" fill="white" font-size="12" font-weight="800">3</text>
  <text x="860" y="449" fill="#9a3412" font-size="13" font-weight="700">แปลงข้อมูลเอกสาร</text>
  <text x="836" y="470" fill="#475569" font-size="11">DOCX → แยก XML → ค้นหา keyword ไทย</text>
  <text x="836" y="488" fill="#475569" font-size="11">ZIP → แตกไฟล์ XLSX → อ่าน sheet BS/PL</text>
  <text x="836" y="506" fill="#475569" font-size="11">จัดการตัวเลขที่มี space: "180 ,000" → 180000</text>
  <text x="836" y="524" fill="#94a3b8" font-size="10">regex + openpyxl, ข้าม [•] placeholder</text>

  <!-- Arrow -->
  <line x1="985" y1="534" x2="985" y2="552" stroke="#cbd5e1" stroke-width="2" marker-end="url(#arrow)"/>

  <!-- Step 4 summary -->
  <rect x="820" y="560" width="330" height="88" rx="10" fill="#ecfdf5" stroke="#86efac" stroke-width="1"/>
  <circle cx="840" cy="580" r="12" fill="#16a34a"/>
  <text x="840" y="585" text-anchor="middle" fill="white" font-size="12" font-weight="800">4</text>
  <text x="860" y="585" fill="#166534" font-size="13" font-weight="700">บันทึกลง Supabase</text>
  <text x="836" y="606" fill="#475569" font-size="11">UPSERT ipos (on conflict symbol)</text>
  <text x="836" y="624" fill="#475569" font-size="11">UPSERT ipo_financials (on conflict ipo_id)</text>
  <text x="836" y="642" fill="#94a3b8" font-size="10">Concurrent workers: 4 SEC / 6 DB</text>

  <!-- Arrow -->
  <line x1="985" y1="648" x2="985" y2="666" stroke="#cbd5e1" stroke-width="2" marker-end="url(#arrow)"/>

  <!-- Step 5 summary -->
  <rect x="820" y="674" width="330" height="88" rx="10" fill="#f8fafc" stroke="#cbd5e1" stroke-width="1"/>
  <circle cx="840" cy="694" r="12" fill="#334155"/>
  <text x="840" y="699" text-anchor="middle" fill="white" font-size="12" font-weight="800">5</text>
  <text x="860" y="699" fill="#334155" font-size="13" font-weight="700">แสดงผลบนเว็บ</text>
  <text x="836" y="720" fill="#475569" font-size="11">Next.js API → คำนวณ Score (FA + UW + พื้นฐาน)</text>
  <text x="836" y="738" fill="#475569" font-size="11">แสดงคำแนะนำ: BUY / NEUTRAL / AVOID</text>
  <text x="836" y="756" fill="#94a3b8" font-size="10">พร้อม Win Rate, Target Price, Upside</text>

  <!-- CLI flags -->
  <rect x="820" y="780" width="330" height="82" rx="10" fill="#f1f5f9" stroke="#e2e8f0" stroke-width="1"/>
  <text x="836" y="800" fill="#334155" font-size="11" font-weight="700">CLI Options:</text>
  <text x="848" y="818" fill="#475569" font-size="10">
    <tspan font-family="monospace" fill="#7c3aed">--dry-run</tspan>  ดึงข้อมูลแต่ไม่เขียน DB
  </text>
  <text x="848" y="836" fill="#475569" font-size="10">
    <tspan font-family="monospace" fill="#7c3aed">--skip-sec-docs</tspan>  ข้ามการดึงเอกสาร SEC
  </text>
  <text x="848" y="854" fill="#475569" font-size="10">
    <tspan font-family="monospace" fill="#7c3aed">--run-id &lt;uuid&gt;</tspan>  ผูกกับ scrape_runs row
  </text>
</svg>
